# xmcd CD database file
#
# Track frame offsets:
#	150
#	12847
#	27667
#	47042
#	60295
#	73572
#	81482
#	93062
#	107525
#	125930
#	142157
#	157005
#	169852
#	181045
#	193862
#	205422
#	219745
#	237255
#
# Disc length: 3333 seconds
#
# Revision: 2
# Processed by: cddbd v1.5.2PL0 Copyright (c) Steve Scherf et al.
# Submitted via: CDex 1.70beta2
#
DISCID=070d0312
DTITLE=Gunter Gabriel - Das Tennessee - Projekt (Gabriel singt Cash)
DYEAR=2003
DGENRE=Country
TTITLE0=Sonderfall von Mann (Solitary Man)
TTITLE1=Wie ein Soldat (Like A Soldier)
TTITLE2=Der Mann mit dem Block (The Man Comes Around)
TTITLE3=Bring mein Herz zu Rose (Give My Love To Rose)
TTITLE4=Vor meiner Zeit (Before My Time)
TTITLE5=Komm rein Fremder (Come In Stranger)
TTITLE6=Wein, wein, wein (Cry Cry Cry)
TTITLE7=Was soll's (Drive On)
TTITLE8=20 Minuten zu gehn (25 Minutes To Go)
TTITLE9=Folsom Prison Blues (Folsom Prison Blues)
TTITLE10=Mann hinterm Pflug (Man In Black)
TTITLE11=Country Boy (Country Boy)
TTITLE12=Hey Schaffner (Hey Porter)
TTITLE13=Mach Tempo (Get Rhythm)
TTITLE14=Ich bleib auf Kurs (I Walk The Line)
TTITLE15=Gitarre Marke Eigenbau (Tennessee Flat - Top Box)
TTITLE16=Ein Junge namens Susie (A Boy Named Sue)
TTITLE17=Country Boy - Duett mit J. Carter (Country Boy - Duet with J. Carter)
EXTD=(c)2003 Erzengel Musik, Kölnische Str. 20, 34117 Kassel, Germany - SONY Music Germany\nEmail: erzengel@leo-event.de\nNEO www.neu.mu\n\nProduziert von John Carter Cash im Cash Cabin Studio, Hendersonville/Tennessee\nKatalog: 514791 2\nupc 50997514791
EXTD=23\n YEAR: 2003
EXTT0=
EXTT1=
EXTT2=
EXTT3=
EXTT4=
EXTT5=
EXTT6=
EXTT7=
EXTT8=
EXTT9=
EXTT10=
EXTT11=
EXTT12=
EXTT13=
EXTT14=
EXTT15=
EXTT16=
EXTT17=
PLAYORDER=
